<?xml version="1.0" encoding="utf-8"?>
<!-- Generator: Adobe Illustrator 18.1.1, SVG Export Plug-In . SVG Version: 6.00 Build 0)  -->
<!DOCTYPE svg PUBLIC "-//W3C//DTD SVG 1.1//EN" "http://www.w3.org/Graphics/SVG/1.1/DTD/svg11.dtd">
<svg version="1.1" id="Layer_1" xmlns="http://www.w3.org/2000/svg" xmlns:xlink="http://www.w3.org/1999/xlink" x="0px" y="0px"
	 viewBox="0 0 16 16" enable-background="new 0 0 16 16" xml:space="preserve">
<rect fill="#FFAA47" width="16" height="16"/>
<polyline opacity="0.2" enable-background="new    " points="8,0 16,0 16,16 8,16 "/>
<path fill="#FFFFFF" d="M5.8,7.1c0,0-0.4-0.3-0.3-0.6c0-0.3,0.3-0.4,0.3-0.6S5.7,5.4,5.6,5.2c0.2,0.1,0.3,0.3,0.6,0.4s0.5,0.1,0.6,0
	C6.9,5.5,6.9,5.5,7,5.7C7.1,5.9,7.2,6,7.2,6.3c0.1,0.3,0.3,0.5,0.6,0.5s1.1,0,1.6,1c0.6,1,0.5,1.8,0.5,1.9c0,0,0.4,0,0.8,0
	c0.3,0,0.7,0,1.2,0.2c0.6,0.2,0.9-0.2,1.1-0.2s0.1,0.3-0.4,0.5s-0.8,0.2-1.3,0.1c-0.5-0.1-1.1-0.2-1.9,0.1c-0.8,0.3-0.9,0.5-1.6,0.2
	c0,0-0.2,0-0.5,0s-0.6-0.2-0.6-0.2s-0.1,0.1-0.2,0.1S6.1,10.4,6,10.1c0,0,0-0.1,0.2-0.2c0,0,0.1,0,0.1-0.4S6.1,8.6,5.9,8.3
	C5.8,8.1,5.8,7.7,5.8,7.1z"/>
</svg>
