<?xml version="1.0" encoding="utf-8"?>
<!-- Generator: Adobe Illustrator 18.1.1, SVG Export Plug-In . SVG Version: 6.00 Build 0)  -->
<!DOCTYPE svg PUBLIC "-//W3C//DTD SVG 1.1//EN" "http://www.w3.org/Graphics/SVG/1.1/DTD/svg11.dtd">
<svg version="1.1" id="Layer_1" xmlns="http://www.w3.org/2000/svg" xmlns:xlink="http://www.w3.org/1999/xlink" x="0px" y="0px"
	 viewBox="0 0 16 16" enable-background="new 0 0 16 16" xml:space="preserve">
<rect fill="#F15A5A" width="16" height="16"/>
<polyline opacity="0.2" enable-background="new    " points="8,0 16,0 16,16 8,16 "/>
<path fill="#FFFFFF" d="M6.2,4.6c0,0,0.2-0.3,0.5-0.3C7,4.3,7,4.3,7.2,4.2c0.1,0,0.6-0.2,0.9-0.1c0.3,0.1,0.1,0.2,0.6,0.3
	C9.1,4.5,9,4.8,8.9,5C8.8,5.2,8.8,5.5,8.7,5.5c0,0.1-0.1,0-0.1-0.2c0,0-0.1,0.4-0.1,0.6c0,0.2,0,0.5,0.1,0.6
	c0.1,0.1,0.6,0.3,0.8,0.9c0,0,0,0.2,0.2,0.3C9.9,7.8,9.9,8,10,8c0.1,0.1,0.4,0.3,0.5,0.7c0.1,0.4,0,0.3,0.1,0.4
	c0.1,0.1,0.3,0.3,0.2,0.4c0,0,0,0.1-0.2,0.1c0,0-0.1,0.1-0.2-0.1c0,0-0.1,0-0.2-0.1c0-0.1,0-0.3,0-0.3S9.9,9.2,9.8,9.2
	c-0.1,0-0.3,0-0.3,0.1c0,0.1,0,0.3,0,0.5c0,0.1,0.1,0.2,0.2,1.1c0.1,0.9,0.1,0.8,0.2,0.9c0,0.2,0.3,0.5,0.4,0.6c0.1,0.1,0,0.3,0,0.3
	S10.1,13,10,13c-0.1,0-0.1-0.1-0.1-0.1s-0.1,0.2-0.1,0.2c0,0-0.1-0.1-0.2-0.3c0,0-0.2-0.1-0.2-0.3c0-0.2,0-0.4,0-0.4
	c0,0-0.1,0.1-0.1,0c0-0.1,0-0.1,0-0.2c0-0.1,0-0.3-0.1-0.4c0-0.1,0-0.2-0.1-0.5c-0.1-0.3-0.3-0.7-0.3-0.9c0-0.1-0.2-0.6-0.3-0.6
	c0,0-0.1,0.1-0.3,0.2C8.2,9.8,8,9.8,8.1,9.6c0-0.2,0-0.2,0-0.2S7.5,9.4,7.3,9.2c0,0-0.1,0.6-0.2,1.2c0,0,0,0.1,0,0.2
	c0,0.1-0.1,0.2-0.1,0.2c0,0.1,0,0.3-0.1,0.4c-0.1,0-0.1,0-0.1,0.1c0,0.1-0.1,0.3-0.3,0.4l-0.1,0c0,0-0.1,0.1-0.2,0.1
	c-0.1,0-0.1-0.1-0.1-0.1s-0.1-0.1,0-0.1c0-0.1,0.1-0.3,0.3-0.5c0.2-0.1,0.3-0.4,0.3-0.5c0-0.1,0-0.6,0-0.8c0-0.2,0-0.5,0-0.5
	s-0.4-0.6-0.3-1c0-0.4,0.3-1.2,0.3-1.4c0-0.2,0-0.3,0-0.3S6.4,6,6.4,5.6c0,0,0-0.1,0,0.1c0,0.2,0,0.2-0.1,0.1
	C6.1,5.8,5.9,5.7,5.7,5.4C5.6,5.1,5.8,5.1,5.8,5C5.9,4.9,6.1,4.7,6.2,4.6z"/>
</svg>
