<?xml version="1.0" encoding="utf-8"?>
<!-- Generator: Adobe Illustrator 18.1.1, SVG Export Plug-In . SVG Version: 6.00 Build 0)  -->
<!DOCTYPE svg PUBLIC "-//W3C//DTD SVG 1.1//EN" "http://www.w3.org/Graphics/SVG/1.1/DTD/svg11.dtd">
<svg version="1.1" id="Layer_1" xmlns="http://www.w3.org/2000/svg" xmlns:xlink="http://www.w3.org/1999/xlink" x="0px" y="0px"
	 viewBox="0 0 16 16" enable-background="new 0 0 16 16" xml:space="preserve">
<rect fill="#1CDF71" width="16" height="16"/>
<polyline opacity="0.2" enable-background="new    " points="8,0 16,0 16,16 8,16 "/>
<path fill="#FFFFFF" d="M9.2,7.1c0,0,0.9,0.2,1,0.2c0.1,0,0.3-0.2,1,0.4c0.7,0.6,1,0.9,0.7,1c0,0,0.2,0.2-0.1,0.3
	c-0.3,0-0.6,0.4-2.1,0.6c-1.5,0.1-1.1,0-1.1,0s-0.2,0.9-0.4,1c0,0-0.1-0.3-0.1-0.5c0,0-0.3,0.5-1.4,1c0,0,0.1-1.5,0.7-1.6
	c0.6-0.1,0.7-0.1,0.7-0.1S7.5,9.2,7.1,8.9c-0.4-0.3-1.2-0.1-1.4,0C5.4,9,4.5,9.5,4.1,9.6C3.7,9.7,3.7,9.7,3.7,9.7S3.4,9,4.2,8.5
	c0,0,0.8-0.5,0.8-0.6c0-0.1,0-0.2-0.3-0.4C4.3,7.3,3.7,7.2,3.1,6.5c0,0,0.2-0.1,0.9,0.1c0.7,0.2,0.8,0.4,1.4,0.6
	C6,7.4,6.1,7.6,6.1,7.6s0.6,0,0.7,0c0.1,0-0.2-0.2-0.4-0.2c0,0-0.1-0.5,0.5-0.7C7.5,6.5,8,5.9,8.1,5.6C8.1,5.6,8.7,5.9,9.2,7.1z"/>
</svg>
