<?xml version="1.0" encoding="utf-8"?>
<!-- Generator: Adobe Illustrator 18.1.1, SVG Export Plug-In . SVG Version: 6.00 Build 0)  -->
<!DOCTYPE svg PUBLIC "-//W3C//DTD SVG 1.1//EN" "http://www.w3.org/Graphics/SVG/1.1/DTD/svg11.dtd">
<svg version="1.1" id="Layer_1" xmlns="http://www.w3.org/2000/svg" xmlns:xlink="http://www.w3.org/1999/xlink" x="0px" y="0px"
	 viewBox="0 0 16 16" enable-background="new 0 0 16 16" xml:space="preserve">
<rect fill="#0888C6" width="16" height="16"/>
<polyline opacity="0.2" enable-background="new    " points="8,0 16,0 16,16 8,16 "/>
<path fill="#FFFFFF" d="M9.2,4.8C9.2,4.8,9.1,4.8,9.2,4.8C8.6,4.9,8.3,5.5,8.2,6C8.2,6.5,8.4,7.1,8.9,7.2c0.1,0,0.2,0,0.2,0
	C9.8,7,10,6.2,9.9,5.6C9.9,5.2,9.6,4.8,9.2,4.8z"/>
<path fill="#FFFFFF" d="M6.8,4.9c-0.3,0-0.6,0.4-0.7,0.7C6,6.2,6.3,7,7,7.2c0.1,0,0.1,0,0.2,0c0.5-0.1,0.7-0.6,0.6-1
	C7.8,5.7,7.5,5,7,4.9C6.9,4.9,6.9,4.9,6.8,4.9z"/>
<path fill="#FFFFFF" d="M10.7,6.7c-0.6,0-1,0.6-1.1,1.2c-0.1,0.4,0.1,0.9,0.6,1c0.6,0,1.1-0.7,1.1-1.3C11.4,7.2,11.1,6.7,10.7,6.7z"
	/>
<path fill="#FFFFFF" d="M5.5,6.9C5.2,6.9,4.9,7,4.9,7.3C4.7,8,5.1,8.9,5.8,9c0.3,0,0.6-0.2,0.6-0.5C6.6,7.9,6.2,7.3,5.8,7
	C5.8,7,5.6,6.9,5.5,6.9z"/>
<path fill="#FFFFFF" d="M8.2,8.1c-0.5,0-1,0.3-1.3,0.6c-0.3,0.4-0.6,1-0.7,1.5c-0.1,0.4,0.2,0.9,0.6,0.9c0.5,0,1-0.3,1.5-0.4
	C8.6,10.7,9,10.9,9.4,11c0.3,0.1,0.7,0,0.9-0.3c0.1-0.5-0.7-2.3-1.4-2.5C8.6,8,8.4,8.1,8.2,8.1z"/>
</svg>
