<?xml version="1.0" encoding="utf-8"?>
<!-- Generator: Adobe Illustrator 18.1.1, SVG Export Plug-In . SVG Version: 6.00 Build 0)  -->
<!DOCTYPE svg PUBLIC "-//W3C//DTD SVG 1.1//EN" "http://www.w3.org/Graphics/SVG/1.1/DTD/svg11.dtd">
<svg version="1.1" id="Layer_1" xmlns="http://www.w3.org/2000/svg" xmlns:xlink="http://www.w3.org/1999/xlink" x="0px" y="0px"
	 viewBox="0 0 16 16" enable-background="new 0 0 16 16" xml:space="preserve">
<rect fill="#7A88EE" width="16" height="16"/>
<polyline opacity="0.2" enable-background="new    " points="8,0 16,0 16,16 8,16 "/>
<path fill="#FFFFFF" d="M12.6,6.7c-0.2-0.1-0.4-0.1-0.6-0.1c-0.2,0-0.3,0.1-0.5,0.1c-0.1,0-0.1,0.1-0.1,0.1c-0.1,0.1-0.2,0.1-0.2,0
	C11.1,7,11,7,11,7c0,0,0,0,0-0.1C10.9,7,10.9,7,10.9,7c-0.1,0-0.1,0-0.2-0.1c0,0.1-0.1,0.2-0.1,0c-0.1,0.2-0.2,0.2-0.3,0
	c0,0.1,0,0.2,0,0.2c0,0-0.1,0-0.1-0.1c0,0.1,0,0.1,0,0.1C10.1,7.1,10,7.1,9.9,7c0,0.1,0,0.1-0.1,0c0,0.1-0.1,0.1-0.1,0
	c0,0.1,0,0.1-0.1,0.1c0,0-0.1,0-0.1-0.1c0,0.1,0,0.1,0,0.1c0,0-0.1,0-0.1,0c0,0.1,0,0.1-0.1,0c0,0.1,0,0.1-0.1,0
	c0,0.1-0.1,0.1-0.1,0c0,0.1,0,0.1,0,0.1c0,0-0.1,0-0.1,0c0,0.1,0,0.1-0.1,0c0,0.1,0,0.1-0.1,0c-0.1,0.1-0.1,0.1-0.2,0
	c0,0.1,0,0.1-0.1,0.1c0,0-0.1,0-0.1,0c0,0.1-0.1,0.1-0.1,0c0,0.1-0.1,0.1-0.1,0c0,0.1-0.1,0.1-0.1,0C8,7.5,8,7.6,7.8,7.4
	c0,0.2,0,0.2-0.2,0.1c0.1,0.1,0,0.1-0.1,0.1c0.1,0.1,0,0.1-0.1,0.1c0,0.1,0,0.1-0.1,0.1c0,0-0.1,0.1-0.3,0.1c-0.2,0-0.5,0-0.5,0
	c-1.9,0-3.1,0.4-3.4,0.6C2.9,8.5,2.7,8.7,3,9.1c0.3,0.4,3.8,0.1,4,0.2c0.2,0,1.1-0.1,1.3-0.1c0.2,0,0.2,0.1,0.2,0.1
	C8.4,9,8,9,7.5,9.1c-0.5,0.1-1.8,0-2,0C5.2,9.1,4.7,9,4.7,9c0.2-0.1,0.7-0.1,0.8-0.1c0,0,1.1,0,2.2,0c0.2,0,0.4,0,0.5,0
	c0.2,0,0.4,0,0.5,0c0.7,0,1.2,0,1.2,0c0.2,0,0.4-0.2,0.4-0.2s0.1,0.2,0.4,0.3c0.3,0.1,0.9,0,1.2,0c0.3,0,0.2-0.1,0.2-0.1
	S12.2,8.8,12,8.7l0,0c0.1,0,0.1,0,0.1,0c0,0,0.1,0,0.1,0s-0.1-0.1-0.2-0.1c-0.1,0-0.3,0-0.5,0c-0.1,0-0.2,0-0.3,0c0,0,0,0,0,0
	c-0.1-0.1-0.1-0.1-0.1-0.1s0.1-0.2,0.2-0.2c0.1-0.1,0.4,0.3,0.5,0.3C12,8.5,12,8.4,12,8.3c0-0.1,0.1-0.2,0.2-0.3
	c0,0,0.1-0.1,0.1-0.1c0-0.1,0-0.1,0.1,0c0-0.1,0-0.1,0-0.1c0,0,0,0,0,0c0,0,0,0,0,0c0,0,0,0,0,0c0,0,0,0,0,0c0-0.1,0-0.1,0.1-0.1
	c0,0,0,0,0,0.1c0-0.1,0-0.1,0-0.1c0,0,0.1,0,0.1,0.1c-0.1-0.1-0.1-0.1,0.1-0.1c-0.1-0.1-0.1-0.1,0-0.1c0,0,0,0,0,0
	c0-0.1,0-0.1,0-0.1c0,0,0,0,0.1,0c0-0.1,0-0.1,0.1-0.1c0-0.1,0-0.1,0.1-0.1c0,0,0-0.1,0-0.1c0,0,0,0,0-0.1c0,0,0,0,0-0.1
	c0,0,0,0,0,0C13.3,6.9,13.2,6.9,12.6,6.7z M4.3,8.9c0,0-0.4,0-0.5,0c0,0,0.6-0.1,1-0.1C4.8,8.7,4.6,8.8,4.3,8.9z M11.8,8.7
	c-0.1,0-0.1,0-0.2,0c-0.1,0-0.1,0-0.1,0C11.6,8.7,11.7,8.7,11.8,8.7z"/>
</svg>
